<svg id="eiKb7D5CehI1" xmlns="http://www.w3.org/2000/svg" xmlns:xlink="http://www.w3.org/1999/xlink" viewBox="0 0 47 47" shape-rendering="geometricPrecision" text-rendering="geometricPrecision"><g id="eiKb7D5CehI2"><path id="eiKb7D5CehI3" d="M23.499,3.499C34.545,3.499,43.499,12.454,43.499,23.499C43.499,34.545,34.545,43.499,23.499,43.499C12.454,43.499,3.499,34.545,3.499,23.499C3.499,12.454,12.454,3.499,23.499,3.499Z" transform="matrix(1 0 0 1 0.001 0.001)" fill="none" stroke="rgb(255,255,255)" stroke-width="1"/><path id="eiKb7D5CehI4" d="M15.84,12.22C14.755,11.691,14.226,11.691,13.896,12.22L8.841,17.105L8.841,0.848C8.841,0.378,8.463,0.1,7.996,0.1C7.529,0.1,7.151,0.378,7.151,0.848L7.151,17.105L2.102,12.22C1.773,11.691,1.244,11.691,0.914,12.22C0.584,12.354,0.584,12.886,0.914,13.217L7.405,19.744C7.57,19.909,7.783,19.992,8.3,19.992C8.222,19.992,8.435,19.909,8.6,19.744L15.91,13.217C15.407,12.892,15.407,12.354,15.84,12.22Z" transform="matrix(1 0 0 1 15.210504 13.453001)" fill="rgb(255,255,255)" fill-rule="evenodd" stroke="none" stroke-width="1"/></g></svg>